#!OML:ASF E:\id_vita\Project 1\Capture day 1\Session 1\Male1.ASF
:FULLY-SPECIFIED
:DEGREES
853
root 15.6282 12.3029 -7.93067 41.5571 75.6646 7.15063
lowerback 28.0658 1.46547 -4.37744
upperback 7.37901 1.0744 -1.06124
thorax -7.26721 0.754566 0.958693
lowerneck -11.5487 1.71282 -1.09361
upperneck 11.8087 2.1779 2.50062
head 5.41343 1.19909 1.13521
rclavicle 2.13197e-014 7.7526e-015
rhumerus 55.8654 22.4293 -53.6714
rradius 22.2679
rwrist 26.9638
rhand -48.58 88.6411
rfingers 7.12502
rthumb -21.2256 59.7832
lclavicle 2.13197e-014 7.7526e-015
lhumerus 53.8755 -13.1023 66.2369
lradius 16.9373
lwrist -36.1804
lhand -38.8365 80.0004
lfingers 7.12502
lthumb -11.846 -109.645
rfemur 12.6112 4.31748 18.7111
rtibia 15.8786
rfoot -23.6905 -13.1413
rtoes 14.8629
lfemur -103.509 -0.101388 -30.407
ltibia 79.3422
lfoot -12.1156 -10.5653
ltoes 32.5536
854
root 15.7113 12.2971 -7.91437 40.6678 75.6155 6.22325
lowerback 28.1692 1.55637 -4.38559
upperback 7.41665 1.18691 -1.03333
thorax -7.28114 0.807901 0.955268
lowerneck -11.8245 1.64384 -1.38509
upperneck 12.0493 2.05695 3.08012
head 5.52772 1.17237 1.36103
rclavicle 2.02263e-014 -7.95139e-016
rhumerus 56.1277 22.3116 -53.4457
rradius 22.3143
rwrist 26.5425
rhand -48.6598 88.9298
rfingers 7.12502
rthumb -21.3022 60.0806
lclavicle 2.02263e-014 -7.95139e-016
lhumerus 54.2246 -13.1221 65.9587
lradius 16.8628
lwrist -35.955
lhand -39.2159 82.7883
lfingers 7.12502
lthumb -12.2118 -112.412
rfemur 12.5968 4.29992 18.7581
rtibia 16.2101
rfoot -22.9963 -11.8487
rtoes 18.2993
lfemur -103.508 0.137933 -30.263
ltibia 79.9753
lfoot -12.7325 -10.638
ltoes 32.9261
855
root 15.7938 12.2949 -7.89833 39.824 75.6626 5.36369
lowerback 28.2906 1.59587 -4.38253
upperback 7.4744 1.24295 -0.971863
thorax -7.27887 0.834949 1.00142
lowerneck -11.8989 1.59089 -1.42545
upperneck 12.0894 1.95463 3.36378
head 5.5519 1.14303 1.45006
rclavicle 3.16565e-014 -3.97569e-016
rhumerus 56.4512 22.2772 -53.1264
rradius 22.3363
rwrist 26.3572
rhand -48.7251 89.0474
rfingers 7.12502
rthumb -21.365 60.2053
lclavicle 3.16565e-014 -3.97569e-016
lhumerus 54.5066 -12.9875 65.8218
lradius 16.7935
lwrist -35.8851
lhand -39.2228 80.7388
lfingers 7.12502
lthumb -12.2185 -110.362
rfemur 12.5885 4.32906 18.8856
rtibia 16.5188
rfoot -22.1268 -10.8916
rtoes 19.5159
lfemur -103.448 0.310408 -30.1078
ltibia 80.5455
lfoot -13.2472 -10.6946
ltoes 33.1642
856
root 15.8797 12.2975 -7.87975 39.8067 75.8641 5.37542
lowerback 28.384 1.53461 -4.3566
upperback 7.54097 1.17854 -0.967071
thorax -7.24557 0.806218 1.01262
lowerneck -11.9897 1.61795 -1.00673
upperneck 12.1415 1.94774 3.13985
head 5.59084 1.14327 1.31265
rclavicle -2.78299e-015 -3.55328e-014
rhumerus 56.6261 22.1515 -53.0882
rradius 22.3266
rwrist 26.4925
rhand -48.7714 89.1691
rfingers 7.12502
rthumb -21.4095 60.332
lclavicle -2.78299e-015 -3.55328e-014
lhumerus 54.7695 -12.834 65.7875
lradius 16.6791
lwrist -36.1196
lhand -39.0361 79.5786
lfingers 7.12502
lthumb -12.0385 -109.212
rfemur 12.5867 4.26669 19.0004
rtibia 16.9139
rfoot -21.1398 -10.3275
rtoes 19.7073
lfemur -103.24 0.27519 -30.1166
ltibia 81.0104
lfoot -13.8604 -10.822
ltoes 33.0088
857
root 15.9678 12.3083 -7.86119 40.1217 75.9004 5.5413
lowerback 28.2375 1.54116 -4.45287
upperback 7.5831 1.17016 -0.987709
thorax -7.12708 0.801547 1.0513
lowerneck -12.2434 1.6106 -0.762896
upperneck 12.3757 1.91926 2.93438
head 5.71276 1.12796 1.21161
rclavicle 1.90833e-014 3.60049e-014
rhumerus 56.6747 21.8731 -53.2617
rradius 22.3282
rwrist 26.7857
rhand -48.8463 89.3167
rfingers 7.12502
rthumb -21.4814 60.4878
lclavicle 1.90833e-014 3.60049e-014
lhumerus 55.1082 -12.8319 65.6371
lradius 16.512
lwrist -36.1404
lhand -39.2949 82.8403
lfingers 7.12502
lthumb -12.288 -112.459
rfemur 12.3907 4.14829 18.8899
rtibia 17.2294
rfoot -20.0925 -9.62711
rtoes 20.9573
lfemur -103.144 0.274761 -30.2019
ltibia 81.3707
lfoot -14.5241 -10.9604
ltoes 33.0298
858
root 16.0504 12.3156 -7.84449 40.7671 75.814 5.84231
lowerback 27.9401 1.60236 -4.64657
upperback 7.51725 1.19931 -0.996995
thorax -7.0601 0.812918 1.14737
lowerneck -12.2943 1.52029 -0.915055
upperneck 12.5147 1.80219 3.08554
head 5.7644 1.07691 1.27652
rclavicle -4.37326e-015 3.37188e-014
rhumerus 56.5664 21.6089 -53.4978
rradius 22.3219
rwrist 27.0446
rhand -48.928 89.4923
rfingers 7.12502
rthumb -21.5599 60.6724
lclavicle -4.37326e-015 3.37188e-014
lhumerus 55.3409 -12.6663 65.9932
lradius 16.2889
lwrist -36.5541
lhand -40.0248 80.2143
lfingers 7.12502
lthumb -12.9916 -109.79
rfemur 11.9876 4.0528 18.637
rtibia 17.537
rfoot -19.101 -8.84794
rtoes 22.454
lfemur -103.284 0.255413 -30.3104
ltibia 81.6795
lfoot -14.9722 -11.0509
ltoes 33.6078
859
root 16.1348 12.3421 -7.82485 41.3274 75.747 6.09671
lowerback 27.724 1.67491 -4.88445
upperback 7.43931 1.22793 -1.00099
thorax -7.04622 0.82565 1.27301
lowerneck -12.1832 1.4865 -0.921085
upperneck 12.4193 1.75056 3.14807
head 5.71611 1.05538 1.29064
rclavicle -3.52346e-014 -3.77691e-014
rhumerus 56.5648 21.4545 -53.5579
rradius 22.2854
rwrist 26.7925
rhand -48.5465 89.223
rfingers 7.12502
rthumb -21.1934 60.3616
lclavicle -3.52346e-014 -3.77691e-014
lhumerus 55.3683 -11.9634 67.3946
lradius 15.9794
lwrist -38.1024
lhand -39.4059 80.0897
lfingers 7.12502
lthumb -12.3951 -109.702
rfemur 11.5889 4.15701 18.4979
rtibia 17.8043
rfoot -17.8903 -8.18322
rtoes 24.492
lfemur -103.221 0.235497 -30.3588
ltibia 81.8742
lfoot -15.4864 -11.0444
ltoes 33.7275
